<svg xmlns="http://www.w3.org/2000/svg" viewBox="0 0 32 32">
  <!-- Navy background -->
  <rect width="32" height="32" rx="6" fill="#0D2545"/>
  <!-- Ethos logo mark scaled to fit 32x32 (original viewBox 307.92x299.26, scale ~0.1) -->
  <g transform="translate(1.5,1.5) scale(0.094)">
    <!-- Icon body — white on dark background -->
    <path fill="#ffffff" d="M125.79,175.33c-.24,8.67,0,17.33-.07,26.17h83.17c14,12.19,28.47,23.56,42.11,36.12-.84,0-1.69,0-2.53,0-48.63,0-97.26,0-145.88.01-12.52,0-25.04,0-37.56.02-6.45,0-11.06-4.19-11.67-10.65-.04-.44-.02-.88-.02-1.32,0-5.22,0-10.43,0-15.61,3.94-3.06,7.76-6.01,11.57-8.98,10.64-8.33,21.28-16.66,31.91-25,.39-.31.76-.66,1.13-.99.44.03.87.09,1.31.1,6.21,0,12.41-.02,18.62.03,2.63.02,5.26-.16,7.89.12z"/>
    <path fill="#ffffff" d="M53.41,199V61.79c2.46,1.71,4.8,3.24,7.04,4.9,9,6.64,18.16,13.07,27.25,19.58,9.15,6.55,18.29,13.1,27.43,19.66,5.67,4.06,11.44,7.99,16.98,12.22,6.69,5.1,7.01,14.3.43,19.51-14.48,11.48-29.14,22.75-43.73,34.1-11.41,8.88-22.83,17.75-34.25,26.61-.32.25-.57.7-1.16.62z"/>
    <!-- Gold accent elements -->
    <path fill="#d3a74a" d="M62.58,56.95h188.35c-.93,1.01-1.72,1.65-2.56,2.25-11.05,7.88-22.09,15.79-33.15,23.67-7.73,5.51-15.49,10.96-23.2,16.48-10.58,7.57-21.13,15.17-31.69,22.76-1.12.8-2.25,1.59-3.4,2.39-31.51-22.4-63-44.79-94.49-67.18l.14-.38z"/>
    <path fill="#d3a74a" d="M125.79,175.33c-2.62-.28-5.26-.1-7.89-.12-6.21-.05-12.41-.02-18.62-.03-.44,0-.87-.06-1.31-.1,5.43-4.28,10.86-8.55,16.28-12.83,8.59-6.77,17.19-13.54,25.79-20.3,1.88-1.48,3.8-2.9,5.64-4.42.82-.68,1.69-.7,2.64-.7,17.74.02,35.48.04,53.22.03,16.55,0,33.09-.06,49.64-.09.44,0,.88,0,1.41,0-.09.87-.8,1.16-1.28,1.54-11.78,9.22-23.61,18.38-35.34,27.66-3.4,2.69-6.93,5.22-10.12,8.16-.94.87-1.97,1.12-3.24,1.12-25.29-.03-50.58-.01-75.87,0-.31,0-.63.05-.94.07z"/>
  </g>
</svg>
