<?xml version="1.0" encoding="UTF-8"?><svg id="Layer_1" xmlns="http://www.w3.org/2000/svg" viewBox="0 0 307.92 299.26"><defs><style>.cls-1,.cls-2,.cls-3{fill:#ffffff;stroke-width:0px;}</style></defs><path class="cls-1" d="M125.79,175.33c-.24,8.67,0,17.33-.07,26.17h83.17c14,12.19,28.47,23.56,42.11,36.12-.84,0-1.69,0-2.53,0-48.63,0-97.26,0-145.88.01-12.52,0-25.04,0-37.56.02-6.45,0-11.06-4.19-11.67-10.65-.04-.44-.02-.88-.02-1.32,0-5.22,0-10.43,0-15.61,3.94-3.06,7.76-6.01,11.57-8.98,10.64-8.33,21.28-16.66,31.91-25,.39-.31.76-.66,1.13-.99.44.03.87.09,1.31.1,6.21,0,12.41-.02,18.62.03,2.63.02,5.26-.16,7.89.12Z"/><path class="cls-1" d="M285.95,230.15c-1.6,3.14-3.72,5.95-5.69,8.85-6.58,9.72-14.71,18.02-23.76,25.4-9.96,8.13-20.89,14.77-32.59,20.15-12.96,5.96-26.45,10.09-40.52,12.44-10.58,1.77-21.22,2.54-31.93,2.17-13.93-.48-27.59-2.71-40.94-6.81-14.17-4.35-27.51-10.5-40.01-18.44-11.63-7.39-22.1-16.16-31.41-26.34-10.89-11.91-19.73-25.18-26.37-39.88-4.97-11.01-8.44-22.48-10.51-34.39-1.71-9.89-2.54-19.83-2.13-29.85.88-21.89,6.16-42.64,16.56-61.99,5.46-10.16,11.89-19.64,19.55-28.3,10.46-11.83,22.46-21.75,35.98-29.87,10.33-6.2,21.29-10.95,32.75-14.6,1.73-.55,3.56-.53,5.29-1.03.3-.09.62-.08.84-.35l-.02.03c.53-.08,1.13.12,1.55-.39h-.04c2.51-.15,4.92-.91,7.39-1.31,9.21-1.47,18.46-2.09,27.78-1.88,6.67.16,13.3.69,19.89,1.7,11,1.68,21.73,4.42,32.11,8.44,11.03,4.27,21.5,9.65,31.17,16.49,5.69,4.03,11.1,8.44,16.11,13.3-.17.02-.25.11-.21.29-5.7-4.88-11.87-9.05-18.41-12.74-10.78-6.07-22.18-10.59-34.07-13.88-8.68-2.4-17.54-3.78-26.54-4.45-8.62-.64-17.22-.62-25.82.15-8.02.73-15.92,2.19-23.71,4.21-16.1,4.18-31.07,10.88-44.85,20.24-9.52,6.46-18.12,13.93-25.86,22.44-10.18,11.19-17.78,23.92-23.29,37.97-3.35,8.55-5.86,17.34-7.41,26.37-1.83,10.62-2.7,21.35-1.95,32.12,1.25,17.93,5.38,35.14,13.11,51.45,8.42,17.78,19.76,33.34,34.49,46.41,13.52,11.99,28.61,21.43,45.41,28.08,10.3,4.07,20.92,6.96,31.9,8.6,10.92,1.64,21.88,2.38,32.91,1.72,13.63-.82,26.87-3.65,39.79-8.02,12.5-4.22,24.31-9.9,35.26-17.26,10.59-7.11,20.24-15.31,28.5-25.09,3.2-3.79,6.34-7.63,9.13-11.75.17-.25.41-.46.62-.69-.13.07-.15.17-.07.28Z"/><path class="cls-2" d="M62.58,56.95h188.35c-.93,1.01-1.72,1.65-2.56,2.25-11.05,7.88-22.09,15.79-33.15,23.67-7.73,5.51-15.49,10.96-23.2,16.48-10.58,7.57-21.13,15.17-31.69,22.76-1.12.8-2.25,1.59-3.4,2.39-31.51-22.4-63-44.79-94.49-67.18l.14-.38Z"/><path class="cls-1" d="M53.41,199V61.79c2.46,1.71,4.8,3.24,7.04,4.9,9,6.64,18.16,13.07,27.25,19.58,9.15,6.55,18.29,13.1,27.43,19.66,5.67,4.06,11.44,7.99,16.98,12.22,6.69,5.1,7.01,14.3.43,19.51-14.48,11.48-29.14,22.75-43.73,34.1-11.41,8.88-22.83,17.75-34.25,26.61-.32.25-.57.7-1.16.62Z"/><path class="cls-2" d="M111.08,7.3c-.48.07-.97.23-1.53-.16,2.12-1,4.35-1.39,6.51-1.98,9.86-2.68,19.92-4.32,30.1-4.88,8.66-.48,17.33-.38,26,.53,11.69,1.23,23.06,3.78,34.15,7.56,12.74,4.34,24.76,10.17,35.86,17.83,10.88,7.5,20.65,16.23,29.33,26.18,10.77,12.34,19.23,26.11,25.52,41.2,4.83,11.6,8.08,23.65,9.67,36.14,1.14,8.95,1.5,17.94,1.02,26.93-.84,15.42-4,30.37-9.74,44.75-4.92,12.35-11.45,23.78-19.54,34.3-5.77,7.49-12.36,14.22-19.67,20.26-6.33,5.22-13.02,9.9-20.12,13.96-10.57,6.04-21.75,10.72-33.42,14.19-12.94,3.85-26.14,6.23-39.65,6.87-6.61.32-13.2.23-19.8-.15-1.3-.08-2.6-.17-3.85-.7,1.55,0,3.1-.07,4.64.01,12.34.62,24.47-.79,36.49-3.52,8.42-1.91,16.58-4.59,24.51-7.98,6.08-2.6,11.85-5.77,17.51-9.18,5.19-3.12,10.06-6.65,14.72-10.5,7.73-6.39,14.83-13.4,21.11-21.22,7.92-9.86,14.44-20.58,19.52-32.15,4.31-9.81,7.5-19.99,9.58-30.51,2.04-10.34,2.95-20.79,2.66-31.32-.38-14.21-2.54-28.15-6.94-41.71-5.03-15.51-12.4-29.8-22.14-42.87-5.35-7.19-11.46-13.68-18.05-19.75-5.89-5.43-12.22-10.26-18.88-14.67-3.09-2.04-6.28-3.93-9.53-5.7-9.36-5.1-19.14-9.12-29.44-11.88-5.16-1.38-10.34-2.71-15.63-3.45-7.72-1.08-15.47-2.05-23.28-1.96-12.05.15-23.94,1.59-35.57,4.85-.24.07-.49.07-.62.34h.04c-.52.11-1.13-.15-1.55.38l.02-.03Z"/><path class="cls-2" d="M125.79,175.33c-2.62-.28-5.26-.1-7.89-.12-6.21-.05-12.41-.02-18.62-.03-.44,0-.87-.06-1.31-.1,5.43-4.28,10.86-8.55,16.28-12.83,8.59-6.77,17.19-13.54,25.79-20.3,1.88-1.48,3.8-2.9,5.64-4.42.82-.68,1.69-.7,2.64-.7,17.74.02,35.48.04,53.22.03,16.55,0,33.09-.06,49.64-.09.44,0,.88,0,1.41,0-.09.87-.8,1.16-1.28,1.54-11.78,9.22-23.61,18.38-35.34,27.66-3.4,2.69-6.93,5.22-10.12,8.16-.94.87-1.97,1.12-3.24,1.12-25.29-.03-50.58-.01-75.87,0-.31,0-.63.05-.94.07Z"/><path class="cls-2" d="M247.76,44.71c-.43-.11-.68-.43-.95-.74-.04-.18.04-.27.21-.29.38.23.73.5.77,1l-.03.03Z"/><path class="cls-2" d="M285.95,230.15c-.08-.11-.06-.21.07-.28.03-.14.13-.15.17,0,.03.14.02.34-.23.28Z"/><path class="cls-2" d="M247.79,44.68c.21.05.35.16.37.38l-.02.03c-.13-.13-.25-.25-.38-.38,0,0,.03-.03.03-.03Z"/><path class="cls-2" d="M248.16,45.06c.21.04.34.17.38.38l-.02.03c-.13-.13-.25-.25-.38-.38l.02-.03Z"/><path class="cls-2" d="M248.54,45.44c.23.03.35.16.37.39l-.02.02-.37-.38.02-.03Z"/><path class="cls-2" d="M248.91,45.83c.22.04.31.2.35.4h0c-.13-.13-.25-.26-.38-.38l.02-.02Z"/><path class="cls-2" d="M249.26,46.23c.05.03.11.05.16.08-.05-.03-.1-.06-.15-.09h0Z"/><path class="cls-3" d="M111.06,7.33c.42-.53,1.03-.26,1.55-.39-.42.5-1.02.3-1.55.39Z"/></svg>
