<svg xmlns="http://www.w3.org/2000/svg" width="135" height="127" viewBox="0 0 135 127" fill="none">
  <path d="M 29.0,101.0 L 42.0,110.0 L 59.0,115.0 L 74.0,115.0 L 75.0,114.0 L 80.0,114.0 L 95.0,108.0 L 104.0,101.0 L 102.0,100.0 L 94.0,106.0 L 88.0,109.0 L 78.0,112.0 L 71.0,112.0 L 70.0,111.0 L 71.0,110.0 L 76.0,110.0 L 82.0,108.0 L 92.0,103.0 L 100.0,97.0 L 67.0,66.0 L 56.0,75.0 Z" fill="#0D1F3C" fill-rule="evenodd"/>
  <path d="M 16.0,83.0 L 18.0,88.0 L 22.0,94.0 L 24.0,95.0 L 67.0,54.0 L 108.0,94.0 L 110.0,95.0 L 112.0,93.0 L 117.0,84.0 L 117.0,82.0 L 67.0,34.0 L 57.0,42.0 L 17.0,81.0 Z" fill="#0D1F3C" fill-rule="evenodd"/>
  <path d="M 85.0,20.0 L 78.0,15.0 L 76.0,15.0 L 73.0,13.0 L 57.0,13.0 L 56.0,14.0 L 52.0,14.0 L 45.0,16.0 L 31.0,24.0 L 20.0,36.0 L 16.0,43.0 L 13.0,52.0 L 13.0,56.0 L 12.0,57.0 L 12.0,70.0 L 13.0,71.0 L 14.0,78.0 L 18.0,75.0 L 18.0,72.0 L 17.0,71.0 L 17.0,57.0 L 18.0,56.0 L 19.0,49.0 L 24.0,39.0 L 35.0,27.0 L 49.0,19.0 L 56.0,17.0 L 61.0,17.0 L 62.0,16.0 L 77.0,17.0 Z" fill="#0D1F3C" fill-rule="evenodd"/>
  <path d="M 25.0,97.0 L 26.0,98.0 L 66.0,59.0 L 72.0,63.0 L 107.0,97.0 L 109.0,96.0 L 66.0,55.0 Z" fill="#C9A84C" fill-rule="evenodd"/>
  <path d="M 81.0,14.0 L 86.0,16.0 L 95.0,22.0 L 106.0,33.0 L 113.0,45.0 L 116.0,55.0 L 116.0,62.0 L 117.0,63.0 L 116.0,75.0 L 119.0,78.0 L 121.0,72.0 L 121.0,56.0 L 116.0,41.0 L 111.0,33.0 L 101.0,23.0 L 86.0,15.0 Z" fill="#C9A84C" fill-rule="evenodd"/>
</svg>
